<svg width="1653" height="993" xmlns="http://www.w3.org/2000/svg" xmlns:xlink="http://www.w3.org/1999/xlink" xml:space="preserve" overflow="hidden"><defs><clipPath id="clip0"><rect x="3709" y="1131" width="1653" height="993"/></clipPath><clipPath id="clip1"><rect x="3709" y="1131" width="1650" height="990"/></clipPath><clipPath id="clip2"><rect x="3921" y="1301" width="1381" height="612"/></clipPath><clipPath id="clip3"><rect x="3921" y="1301" width="1381" height="612"/></clipPath><clipPath id="clip4"><rect x="3709" y="1131" width="1650" height="990"/></clipPath><clipPath id="clip5"><rect x="3709" y="1131" width="1650" height="990"/></clipPath><clipPath id="clip6"><rect x="3709" y="1131" width="1650" height="990"/></clipPath><clipPath id="clip7"><rect x="3709" y="1131" width="1650" height="990"/></clipPath><clipPath id="clip8"><rect x="3709" y="1131" width="1650" height="990"/></clipPath><clipPath id="clip9"><rect x="3709" y="1131" width="1650" height="990"/></clipPath><clipPath id="clip10"><rect x="3709" y="1131" width="1650" height="990"/></clipPath><clipPath id="clip11"><rect x="3709" y="1131" width="1650" height="990"/></clipPath><clipPath id="clip12"><rect x="3709" y="1131" width="1650" height="990"/></clipPath><clipPath id="clip13"><rect x="3709" y="1131" width="1650" height="990"/></clipPath><clipPath id="clip14"><rect x="3709" y="1131" width="1650" height="990"/></clipPath><clipPath id="clip15"><rect x="3709" y="1131" width="1650" height="990"/></clipPath><clipPath id="clip16"><rect x="3709" y="1131" width="1650" height="990"/></clipPath><clipPath id="clip17"><rect x="3709" y="1131" width="1650" height="990"/></clipPath><clipPath id="clip18"><rect x="3709" y="1131" width="1650" height="990"/></clipPath><clipPath id="clip19"><rect x="3709" y="1131" width="1650" height="990"/></clipPath><clipPath id="clip20"><rect x="3709" y="1131" width="1650" height="990"/></clipPath></defs><g clip-path="url(#clip0)" transform="translate(-3709 -1131)"><rect x="3710" y="1132" width="1650" height="990" fill="#FFFFFF"/><g clip-path="url(#clip1)"><path d="M4118.64 1301.5 4118.64 1910.5M4315.64 1301.5 4315.64 1910.5M4511.65 1301.5 4511.65 1910.5M4708.65 1301.5 4708.65 1910.5M4905.66 1301.5 4905.66 1910.5M5101.67 1301.5 5101.67 1910.5M5298.5 1301.5 5298.5 1910.5" stroke="#D9D9D9" stroke-width="3.4375" stroke-linejoin="round" stroke-miterlimit="10" fill="none"/></g><g clip-path="url(#clip2)"><path d="M4134.14 1862.06 3922 1862.06 3922 1809.06 4134.14 1809.06ZM4339.14 1659.05 3922 1659.05 3922 1606.05 4339.14 1606.05ZM4648.15 1456.05 3922 1456.05 3922 1403.05 4648.15 1403.05Z" fill="#4472C4"/></g><g clip-path="url(#clip3)"><path d="M4244.14 1809.06 3922 1809.06 3922 1756.06 4244.14 1756.06ZM4583.15 1606.05 3922 1606.05 3922 1553.05 4583.15 1553.05ZM5191.17 1403.05 3922 1403.05 3922 1350.04 5191.17 1350.04Z" fill="#ED7D31"/></g><g clip-path="url(#clip4)"><path d="M0 0 0.000360892 609" stroke="#D9D9D9" stroke-width="3.4375" stroke-linejoin="round" stroke-miterlimit="10" fill="none" fill-rule="evenodd" transform="matrix(1 0 0 -1 3921.5 1910.5)"/></g><g clip-path="url(#clip5)"><text fill="#595959" font-family="Calibri,Calibri_MSFontService,sans-serif" font-weight="400" font-size="41" transform="matrix(1 0 0 1 3911.37 1976)">0</text></g><g clip-path="url(#clip6)"><text fill="#595959" font-family="Calibri,Calibri_MSFontService,sans-serif" font-weight="400" font-size="41" transform="matrix(1 0 0 1 4108.09 1976)">1</text></g><g clip-path="url(#clip7)"><text fill="#595959" font-family="Calibri,Calibri_MSFontService,sans-serif" font-weight="400" font-size="41" transform="matrix(1 0 0 1 4304.81 1976)">2</text></g><g clip-path="url(#clip8)"><text fill="#595959" font-family="Calibri,Calibri_MSFontService,sans-serif" font-weight="400" font-size="41" transform="matrix(1 0 0 1 4501.54 1976)">3</text></g><g clip-path="url(#clip9)"><text fill="#595959" font-family="Calibri,Calibri_MSFontService,sans-serif" font-weight="400" font-size="41" transform="matrix(1 0 0 1 4698.26 1976)">4</text></g><g clip-path="url(#clip10)"><text fill="#595959" font-family="Calibri,Calibri_MSFontService,sans-serif" font-weight="400" font-size="41" transform="matrix(1 0 0 1 4894.99 1976)">5</text></g><g clip-path="url(#clip11)"><text fill="#595959" font-family="Calibri,Calibri_MSFontService,sans-serif" font-weight="400" font-size="41" transform="matrix(1 0 0 1 5091.71 1976)">6</text></g><g clip-path="url(#clip12)"><text fill="#595959" font-family="Calibri,Calibri_MSFontService,sans-serif" font-weight="400" font-size="41" transform="matrix(1 0 0 1 5288.43 1976)">7</text></g><g clip-path="url(#clip13)"><text fill="#595959" font-family="Calibri,Calibri_MSFontService,sans-serif" font-weight="400" font-size="41" transform="matrix(1 0 0 1 3804.6 1821)">SSE4</text></g><g clip-path="url(#clip14)"><text fill="#595959" font-family="Calibri,Calibri_MSFontService,sans-serif" font-weight="400" font-size="41" transform="matrix(1 0 0 1 3793.97 1618)">AVX2</text></g><g clip-path="url(#clip15)"><text fill="#595959" font-family="Calibri,Calibri_MSFontService,sans-serif" font-weight="400" font-size="41" transform="matrix(1 0 0 1 3739.54 1415)">AVX-512</text></g><g clip-path="url(#clip16)"><text fill="#595959" font-family="Calibri,Calibri_MSFontService,sans-serif" font-weight="400" font-size="64" transform="matrix(1 0 0 1 3969.83 1227)">Billion Pseudorandom Numbers per Second</text></g><g clip-path="url(#clip17)"><rect x="4294" y="2044" width="23" height="23.0001" fill="#ED7D31"/></g><g clip-path="url(#clip18)"><text fill="#595959" font-family="Calibri,Calibri_MSFontService,sans-serif" font-weight="400" font-size="41" transform="matrix(1 0 0 1 4326.26 2067)">xorshift128+</text></g><g clip-path="url(#clip19)"><rect x="4582" y="2044" width="23" height="23.0001" fill="#4472C4"/></g><g clip-path="url(#clip20)"><text fill="#595959" font-family="Calibri,Calibri_MSFontService,sans-serif" font-weight="400" font-size="41" transform="matrix(1 0 0 1 4614.43 2067)">MWC1616</text></g><rect x="3710.5" y="1132.5" width="1650" height="990" stroke="#D9D9D9" stroke-width="3.4375" stroke-linejoin="round" stroke-miterlimit="10" fill="none"/></g></svg>